<?xml version="1.0" standalone="no"?>
<!DOCTYPE svg PUBLIC "-//W3C//DTD SVG 20010904//EN"
 "http://www.w3.org/TR/2001/REC-SVG-20010904/DTD/svg10.dtd">
<svg version="1.0" xmlns="http://www.w3.org/2000/svg"
 width="64.000000pt" height="64.000000pt" viewBox="0 0 64.000000 64.000000"
 preserveAspectRatio="xMidYMid meet">
<metadata>
Created by potrace 1.16, written by Peter Selinger 2001-2019
</metadata>
<g transform="translate(0.000000,64.000000) scale(0.100000,-0.100000)"
fill="#000000" stroke="none">
<path d="M137 503 c-16 -17 -13 -22 65 -100 l83 -83 -83 -83 c-78 -78 -81 -83
-65 -100 17 -16 22 -13 100 65 l83 83 83 -83 c78 -78 83 -81 100 -65 16 17 13
22 -65 100 l-83 83 83 83 c78 78 81 83 65 100 -17 16 -22 13 -100 -65 l-83
-83 -83 83 c-78 78 -83 81 -100 65z"/>
</g>
</svg>
