<?xml version="1.0" standalone="no"?>
<!DOCTYPE svg PUBLIC "-//W3C//DTD SVG 20010904//EN"
 "http://www.w3.org/TR/2001/REC-SVG-20010904/DTD/svg10.dtd">
<svg version="1.0" xmlns="http://www.w3.org/2000/svg"
 width="40" height="40" viewBox="0 0 1298.000000 1297.000000"
 preserveAspectRatio="xMidYMid meet">
<metadata>
Created by potrace 1.16, written by Peter Selinger 2001-2019
</metadata>
<g transform="translate(0.000000,1297.000000) scale(0.100000,-0.100000)"
fill="#FFFFFF" stroke="none">
<path d="M6408 11628 c-61 -66 -133 -166 -158 -217 -11 -25 -25 -54 -31 -63
-15 -29 -11 -193 7 -240 18 -49 46 -110 54 -118 15 -15 50 -71 50 -80 0 -5 3
-10 8 -10 4 0 21 -21 37 -45 17 -25 33 -45 38 -45 4 0 7 -7 7 -15 0 -8 3 -15
8 -15 8 0 35 -43 66 -105 15 -31 20 -61 20 -130 1 -87 0 -92 -37 -152 -21 -35
-43 -63 -48 -63 -5 0 -9 -4 -9 -9 0 -6 -16 -27 -35 -48 -80 -88 -42 -181 65
-158 17 4 30 10 30 14 0 4 13 20 28 37 52 55 123 153 154 216 28 57 31 72 32
155 0 66 -5 104 -18 135 -23 55 -76 158 -86 168 -3 3 -18 23 -33 46 -15 22
-35 49 -45 60 -31 33 -78 107 -103 159 -18 39 -23 67 -23 130 0 90 8 111 84
208 102 132 101 131 95 157 -8 36 -51 70 -87 70 -24 0 -40 -10 -70 -42z"/>
<path d="M5460 11183 c-34 -24 -60 -51 -60 -63 0 -5 -4 -10 -8 -10 -10 0 -101
-121 -125 -165 -44 -81 -49 -102 -44 -187 6 -106 18 -157 47 -198 13 -18 24
-40 25 -49 1 -21 85 -151 96 -151 5 0 9 -7 9 -15 0 -8 4 -15 9 -15 5 0 24 -24
42 -52 64 -103 89 -171 89 -244 0 -84 -30 -146 -119 -253 -33 -39 -63 -81 -66
-92 -14 -43 31 -99 81 -99 26 0 59 28 115 98 30 37 61 75 70 85 33 36 78 137
89 198 15 79 0 167 -43 259 -31 66 -66 122 -79 128 -5 2 -8 10 -8 18 0 8 -3
14 -7 14 -5 0 -21 21 -38 45 -16 25 -33 45 -37 45 -5 0 -8 6 -8 14 0 8 -4 16
-8 18 -15 6 -69 112 -82 161 -27 103 13 217 120 342 70 82 76 111 31 156 -34
33 -56 36 -91 12z"/>
<path d="M7399 11152 c-94 -103 -136 -160 -180 -242 -21 -40 -24 -57 -23 -160
0 -111 1 -118 35 -185 36 -73 98 -173 122 -196 21 -21 101 -140 121 -179 31
-59 45 -143 34 -202 -10 -53 -57 -142 -100 -188 -95 -100 -108 -141 -57 -184
55 -46 77 -38 167 65 164 187 205 338 140 510 -19 51 -101 187 -138 229 -17
19 -38 47 -48 63 -9 15 -20 27 -24 27 -4 0 -8 5 -8 10 0 6 -11 27 -24 48 -33
52 -59 152 -53 199 13 94 38 142 136 258 61 71 65 102 22 146 -43 42 -70 38
-122 -19z"/>
<path d="M6385 9819 c-56 -8 -120 -30 -137 -47 -7 -7 -17 -12 -22 -12 -12 0
-79 -61 -111 -101 -11 -13 -30 -44 -41 -69 -41 -85 -47 -118 -40 -215 l7 -92
-43 -6 c-116 -16 -312 -54 -423 -81 -142 -36 -379 -114 -432 -144 -12 -7 -26
-12 -32 -12 -21 0 -334 -150 -339 -162 -2 -5 -8 -8 -14 -8 -9 0 -155 -85 -226
-133 -15 -9 -35 -20 -44 -23 -10 -4 -18 -10 -18 -14 0 -5 -17 -19 -37 -31 -42
-25 -192 -137 -208 -154 -5 -6 -31 -28 -57 -48 -25 -20 -65 -55 -88 -77 -23
-22 -44 -40 -46 -40 -4 0 -93 -92 -211 -217 -30 -32 -68 -77 -85 -100 -17 -24
-35 -43 -40 -43 -4 0 -8 -7 -8 -15 0 -8 -4 -15 -8 -15 -14 0 -236 -317 -263
-375 -5 -11 -18 -33 -29 -50 -11 -16 -25 -41 -30 -55 -6 -13 -14 -27 -18 -30
-11 -8 -107 -208 -146 -305 -7 -16 -19 -46 -28 -65 -18 -42 -28 -71 -73 -210
-47 -142 -61 -192 -80 -280 -10 -41 -23 -100 -30 -130 -7 -30 -19 -100 -26
-155 -7 -55 -16 -107 -20 -116 -7 -14 -30 -17 -131 -21 -140 -4 -163 -13 -238
-88 -69 -69 -84 -107 -84 -209 1 -78 4 -91 32 -136 32 -53 77 -97 133 -130 33
-19 55 -20 747 -23 676 -2 712 -4 712 -21 0 -51 36 -119 94 -178 34 -35 67
-63 74 -63 6 0 12 -4 12 -8 0 -5 20 -23 44 -40 90 -65 316 -280 316 -301 0 -6
4 -11 8 -11 10 0 82 -96 82 -110 0 -5 4 -10 9 -10 5 0 13 -10 17 -22 3 -13 13
-31 21 -40 10 -11 16 -39 16 -82 1 -55 -5 -76 -36 -138 -20 -40 -50 -89 -68
-108 -72 -80 -139 -148 -195 -198 -32 -30 -70 -64 -84 -76 -24 -22 -238 -181
-371 -276 -35 -25 -95 -65 -134 -89 -38 -24 -93 -58 -122 -77 -28 -19 -56 -34
-61 -34 -6 0 -12 -4 -14 -8 -4 -11 -123 -82 -136 -82 -6 0 -12 -3 -14 -8 -4
-9 -126 -82 -139 -82 -5 0 -9 -4 -9 -9 0 -5 -10 -13 -22 -17 -12 -3 -53 -25
-92 -48 -39 -23 -89 -50 -111 -61 -22 -11 -42 -23 -45 -27 -3 -4 -17 -12 -30
-18 -14 -5 -45 -22 -70 -36 -25 -14 -99 -54 -165 -87 -65 -34 -128 -70 -138
-81 -11 -10 -22 -35 -24 -56 -5 -33 -1 -43 22 -64 15 -14 40 -26 54 -26 21 0
184 73 201 90 3 3 30 18 60 33 30 16 73 39 95 51 126 70 173 96 295 166 219
126 249 143 490 298 30 20 71 45 90 57 86 53 262 174 344 237 49 37 94 68 101
68 7 0 23 -10 36 -22 14 -13 56 -48 94 -78 39 -30 80 -65 92 -77 12 -13 27
-23 33 -23 5 0 10 -4 10 -8 0 -5 21 -24 47 -43 26 -18 54 -40 63 -49 8 -8 47
-40 85 -70 69 -54 86 -68 135 -110 14 -12 46 -38 72 -58 27 -20 48 -40 48 -44
0 -4 7 -8 15 -8 8 0 15 -4 15 -8 0 -5 21 -24 47 -43 26 -18 54 -40 63 -49 9
-8 61 -51 115 -95 55 -44 102 -82 105 -85 3 -3 28 -23 55 -45 105 -82 126 -42
-180 -343 -540 -529 -1160 -1146 -1177 -1171 -25 -36 -22 -61 7 -93 32 -35 66
-44 98 -26 14 7 317 301 673 653 968 956 884 869 884 911 0 28 -8 43 -34 67
-56 53 -98 87 -107 87 -5 0 -9 4 -9 8 0 5 -20 23 -45 41 -51 36 -55 52 -21 74
13 9 29 22 37 29 8 7 37 31 64 53 28 22 52 42 55 45 18 19 250 200 256 200 4
0 12 6 18 14 17 21 455 346 466 346 6 0 10 4 10 10 0 5 20 21 45 36 25 14 45
30 45 35 0 5 5 9 10 9 6 0 16 5 23 10 43 37 188 140 196 140 5 0 11 4 13 8 3
7 234 173 276 197 9 6 19 12 22 15 14 14 70 50 79 50 5 0 11 3 13 8 5 10 66
52 77 52 5 0 11 3 13 8 5 10 66 52 77 52 5 0 11 3 13 8 5 11 66 52 78 52 5 0
10 4 10 9 0 5 14 14 30 21 17 7 30 16 30 21 0 5 5 9 11 9 6 0 48 24 92 54 113
74 354 216 367 216 5 0 10 4 10 9 0 5 12 14 28 20 15 6 54 27 87 46 33 19 80
45 105 57 25 13 50 27 55 31 11 10 57 33 270 140 205 103 235 132 235 229 l0
57 653 3 c647 3 652 3 692 25 46 24 111 91 140 143 16 28 20 53 19 125 0 102
-17 146 -82 211 -66 66 -102 78 -244 82 l-128 4 0 26 c0 48 -50 316 -76 406
-8 26 -14 56 -14 64 0 9 -6 34 -14 57 -8 22 -28 85 -46 140 -71 225 -183 476
-302 678 -32 54 -58 102 -58 107 0 5 -3 10 -7 12 -11 5 -53 66 -53 77 0 5 -3
11 -7 13 -11 5 -53 66 -53 77 0 5 -4 11 -9 13 -5 2 -39 44 -77 93 -81 108
-181 219 -232 260 -21 17 -60 55 -86 85 -85 96 -92 105 -122 130 -93 79 -151
125 -249 198 -60 45 -115 86 -122 92 -7 5 -15 10 -18 10 -8 0 -69 44 -73 53
-2 4 -7 7 -12 7 -5 0 -53 26 -107 58 -281 164 -593 291 -928 375 -93 24 -379
77 -412 77 -17 0 -19 7 -15 96 5 98 -13 186 -45 225 -7 8 -13 21 -13 27 0 6
-26 37 -58 69 -103 104 -220 142 -367 122z m169 -179 c139 -59 193 -212 125
-355 -34 -73 -33 -105 4 -136 12 -10 37 -18 56 -19 105 -1 434 -59 596 -105
198 -56 335 -105 428 -151 16 -8 33 -14 38 -14 13 0 203 -94 274 -135 33 -19
72 -40 88 -46 15 -6 27 -15 27 -20 0 -5 5 -9 11 -9 22 0 340 -225 419 -296 14
-13 57 -51 95 -86 63 -56 232 -224 290 -288 41 -45 205 -269 205 -280 0 -5 4
-10 9 -10 7 0 43 -53 104 -155 7 -11 15 -22 19 -25 4 -3 12 -17 17 -30 6 -14
21 -41 32 -60 53 -87 179 -351 179 -374 0 -8 4 -17 9 -20 4 -3 18 -36 30 -73
12 -37 28 -84 35 -103 25 -67 70 -221 90 -310 42 -186 68 -352 57 -363 -4 -4
-1510 -6 -3347 -5 -2625 2 -3338 6 -3337 15 2 7 7 47 12 90 14 116 34 208 77
359 8 28 14 59 14 68 0 10 6 32 13 49 8 18 21 57 31 87 40 128 93 255 180 428
84 169 88 177 98 180 4 2 8 8 8 14 0 12 72 132 83 136 4 2 7 8 7 13 0 11 42
72 53 77 4 2 7 10 7 18 0 8 3 14 8 14 4 0 20 20 35 45 16 25 33 45 38 45 5 0
9 6 9 14 0 8 3 16 8 18 4 2 25 26 47 53 21 28 51 63 65 80 34 40 307 312 356
355 74 65 132 110 143 110 6 0 11 4 11 8 0 10 96 82 109 82 5 0 11 3 13 8 5
10 66 52 77 52 5 0 11 3 13 8 3 8 64 52 72 52 3 0 40 21 83 46 43 25 85 49 93
54 39 22 190 93 265 124 22 10 48 21 58 27 9 5 86 32 170 59 214 71 208 69
258 79 24 5 62 14 84 19 102 26 185 42 211 42 16 0 65 7 109 15 44 8 101 14
127 15 39 0 50 5 72 31 30 35 33 65 11 97 -20 28 -45 109 -45 146 0 41 20 106
44 141 40 59 67 80 137 106 63 23 112 20 183 -11z m2091 -3633 c1420 -2 1532
-3 1554 -19 88 -62 77 -193 -20 -232 -36 -15 -380 -16 -3735 -16 -3248 0
-3698 2 -3724 15 -37 19 -70 66 -77 108 -7 42 16 87 60 121 l33 26 305 2 c285
3 2039 1 5604 -5z m-930 -437 c4 -6 -6 -10 -24 -10 -16 0 -32 -4 -36 -9 -3 -5
-20 -12 -38 -16 -35 -7 -120 -33 -152 -46 -32 -13 -108 -40 -130 -45 -11 -3
-29 -10 -40 -15 -11 -4 -38 -15 -60 -23 -61 -21 -174 -63 -235 -86 -30 -12
-66 -25 -80 -30 -14 -5 -50 -18 -80 -30 -175 -68 -489 -164 -635 -194 -44 -10
-100 -22 -125 -28 -25 -6 -101 -13 -170 -15 -107 -5 -138 -2 -210 16 -87 22
-171 51 -180 60 -3 4 -21 15 -40 25 -37 21 -138 95 -180 133 -53 48 -87 75
-127 105 -24 17 -43 35 -43 40 0 4 -4 8 -10 8 -5 0 -38 21 -73 48 -35 26 -87
61 -115 77 -29 17 -52 33 -52 38 0 11 2828 9 2835 -3z m-3239 -29 c109 -29
161 -48 254 -94 73 -36 265 -157 280 -176 3 -4 37 -31 75 -61 39 -30 80 -65
92 -77 12 -13 27 -23 33 -23 5 0 10 -3 10 -8 0 -15 145 -116 224 -154 99 -49
148 -66 251 -84 171 -30 373 -13 630 52 142 36 408 119 525 164 30 12 64 24
75 27 11 3 34 11 50 18 17 8 71 28 120 46 50 17 104 37 120 44 17 7 50 20 75
28 25 9 77 28 115 42 39 15 84 30 100 35 17 4 41 12 55 18 14 5 52 18 85 27
33 10 78 24 100 31 22 6 69 20 105 29 36 9 87 23 114 31 26 8 56 14 65 14 9 0
45 6 81 14 134 31 167 37 240 45 41 5 111 15 155 21 121 18 251 -3 224 -37 -6
-7 -17 -13 -23 -13 -12 0 -84 -36 -276 -137 -201 -106 -247 -132 -323 -177
-43 -25 -81 -46 -83 -46 -2 0 -23 -12 -47 -27 -59 -38 -80 -51 -97 -59 -8 -4
-33 -19 -55 -33 -66 -42 -71 -45 -106 -65 -19 -10 -77 -47 -130 -82 -54 -35
-102 -64 -107 -64 -6 0 -12 -3 -14 -7 -5 -11 -66 -53 -77 -53 -5 0 -11 -3 -13
-7 -5 -11 -66 -53 -77 -53 -5 0 -11 -3 -13 -7 -5 -11 -66 -53 -77 -53 -5 0
-11 -3 -13 -7 -4 -10 -65 -53 -73 -53 -4 0 -12 -6 -20 -12 -7 -7 -43 -33 -79
-58 -37 -25 -95 -66 -131 -92 -35 -27 -67 -48 -69 -48 -3 0 -14 -6 -23 -14
-53 -44 -185 -136 -193 -136 -6 0 -10 -4 -10 -10 0 -5 -20 -21 -45 -36 -25
-14 -45 -30 -45 -35 0 -5 -6 -9 -14 -9 -8 0 -16 -3 -18 -8 -1 -4 -27 -25 -57
-46 -30 -21 -59 -43 -65 -47 -6 -5 -60 -46 -121 -91 -60 -45 -112 -84 -115
-87 -3 -3 -24 -19 -47 -35 -24 -16 -43 -33 -43 -37 0 -5 -6 -9 -14 -9 -8 0
-16 -4 -18 -8 -1 -4 -55 -48 -118 -97 -63 -49 -120 -94 -126 -99 -15 -15 -49
-43 -109 -91 -28 -21 -63 -52 -79 -67 -17 -15 -34 -28 -39 -28 -9 0 -74 49
-112 83 -11 10 -39 33 -62 50 -24 17 -43 34 -43 39 0 4 -7 8 -15 8 -8 0 -15 4
-15 8 0 4 -24 25 -52 47 -29 21 -57 44 -63 49 -5 6 -49 43 -97 81 -49 39 -88
73 -88 78 0 4 -7 7 -15 7 -8 0 -15 4 -15 8 0 5 -21 24 -47 43 -26 18 -54 40
-63 49 -8 8 -47 40 -85 70 -91 71 -135 111 -135 122 0 4 45 56 101 116 84 89
199 239 199 259 0 3 6 19 14 36 59 133 61 219 8 327 -32 64 -52 100 -62 110
-3 3 -19 25 -35 50 -36 54 -316 340 -333 340 -7 0 -12 4 -12 8 0 5 -27 28 -60
52 -33 24 -60 47 -60 52 0 4 -4 8 -9 8 -15 0 -81 63 -81 77 0 20 101 16 186
-6z"/>
<path d="M6425 8901 c-62 -13 -73 -116 -15 -146 44 -23 142 -20 165 5 10 11
23 20 29 19 26 -3 35 2 38 24 2 12 10 22 18 22 18 0 30 -46 17 -63 -17 -22 4
-29 128 -41 200 -20 501 -89 630 -145 17 -7 45 -17 62 -20 18 -4 35 -12 38
-17 4 -5 13 -9 20 -9 8 0 48 -16 89 -35 41 -19 80 -35 86 -35 5 0 10 -4 10 -9
0 -5 12 -12 27 -16 15 -3 30 -10 33 -13 3 -4 40 -25 83 -47 120 -61 127 -65
127 -76 0 -5 5 -9 12 -9 15 0 168 -101 168 -112 0 -4 4 -8 10 -8 9 0 67 -42
120 -87 14 -11 48 -40 75 -63 78 -66 184 -169 260 -255 39 -43 78 -87 88 -97
9 -10 17 -22 17 -28 0 -5 4 -10 8 -10 19 0 214 -285 272 -397 14 -26 27 -50
30 -53 15 -15 140 -286 140 -303 0 -7 4 -17 9 -22 5 -6 14 -26 19 -45 6 -19
22 -69 37 -110 35 -102 52 -159 59 -199 9 -52 31 -79 71 -87 42 -8 82 14 91
51 3 14 1 48 -6 77 -15 67 -68 243 -86 285 -8 17 -14 36 -14 42 0 6 -8 27 -17
48 -9 21 -25 58 -36 83 -59 136 -163 335 -218 418 -16 24 -29 47 -29 53 0 5
-4 9 -9 9 -5 0 -14 14 -21 30 -7 17 -16 30 -21 30 -5 0 -9 7 -9 15 0 8 -4 15
-8 15 -5 0 -14 10 -20 23 -5 12 -36 54 -66 92 -31 39 -71 88 -88 110 -98 123
-421 421 -558 516 -19 13 -36 27 -38 32 -2 4 -8 7 -13 7 -11 0 -72 42 -77 53
-2 4 -8 7 -12 7 -5 0 -28 13 -52 29 -107 71 -446 241 -481 241 -7 0 -17 4 -22
9 -11 10 -311 111 -330 111 -7 0 -35 6 -61 14 -142 41 -371 77 -531 83 -130 6
-133 5 -141 -16 l-8 -22 -22 26 c-23 26 -27 27 -77 16z"/>
<path d="M5151 3043 c-39 -17 -56 -48 -56 -104 0 -48 4 -61 27 -84 22 -22 37
-27 78 -28 42 -1 55 4 79 27 47 45 48 117 2 167 -20 22 -99 36 -130 22z"/>
</g>
</svg>
