<?xml version="1.0" standalone="no"?>
<!DOCTYPE svg PUBLIC "-//W3C//DTD SVG 20010904//EN"
 "http://www.w3.org/TR/2001/REC-SVG-20010904/DTD/svg10.dtd">
<svg version="1.0" xmlns="http://www.w3.org/2000/svg"
 width="64.000000pt" height="64.000000pt" viewBox="0 0 64.000000 64.000000"
 preserveAspectRatio="xMidYMid meet">
<g transform="translate(0.000000,64.000000) scale(0.100000,-0.100000)"
fill="#ff6b6b" stroke="none">
<path d="M153 500 c-18 -10 -40 -31 -49 -45 -25 -38 -22 -120 6 -174 28 -56
102 -129 163 -161 l47 -25 47 25 c61 32 135 105 163 161 28 54 31 136 6 174
-39 59 -112 79 -181 51 -31 -13 -39 -13 -70 0 -47 19 -94 18 -132 -6z"/>
</g>
</svg>
