<?xml version="1.0" standalone="no"?>
<!DOCTYPE svg PUBLIC "-//W3C//DTD SVG 20010904//EN"
 "http://www.w3.org/TR/2001/REC-SVG-20010904/DTD/svg10.dtd">
<svg version="1.0" xmlns="http://www.w3.org/2000/svg"
 width="48.000000pt" height="48.000000pt" viewBox="0 0 48.000000 48.000000"
 preserveAspectRatio="xMidYMid meet">
<metadata>
Created by potrace 1.16, written by Peter Selinger 2001-2019
</metadata>
<g transform="translate(0.000000,48.000000) scale(0.100000,-0.100000)"
fill="#000000" stroke="none">
<path d="M142 375 l-82 -65 0 -130 0 -130 75 0 74 0 3 62 c3 60 4 63 28 63 24
0 25 -3 28 -63 l3 -62 74 0 75 0 0 130 0 130 -82 65 c-45 36 -89 65 -98 65 -9
0 -53 -29 -98 -65z m172 -36 c36 -28 67 -61 70 -73 3 -11 6 -58 6 -103 l0 -83
-45 0 -44 0 -3 62 -3 63 -55 0 -55 0 -3 -63 -3 -62 -44 0 -45 0 1 88 c0 48 4
95 7 104 9 22 122 117 140 117 7 1 41 -22 76 -50z"/>
</g>
</svg>
