<?xml version="1.0" standalone="no"?>
<!DOCTYPE svg PUBLIC "-//W3C//DTD SVG 20010904//EN"
 "http://www.w3.org/TR/2001/REC-SVG-20010904/DTD/svg10.dtd">
<svg version="1.0" xmlns="http://www.w3.org/2000/svg"
 width="64.000000pt" height="64.000000pt" viewBox="0 0 64.000000 64.000000"
 preserveAspectRatio="xMidYMid meet">
<g transform="translate(0.000000,64.000000) scale(0.100000,-0.100000)">
    <!-- Outline path -->
    <path class="star-outline" d="M267 531 c-42 -103 -40 -101 -147 -114 -126 -16 -130 -30 -30 -112
    38 -33 70 -62 70 -67 0 -4 -9 -46 -20 -94 -16 -66 -18 -90 -9 -100 17 -20 22
    -19 110 36 l80 50 79 -50 c87 -55 92 -56 109 -36 9 10 7 34 -9 100 -11 48 -20
    90 -20 94 0 5 32 34 70 67 93 77 93 97 0 108 -137 16 -131 12 -170 104 -30 72
    -38 83 -60 83 -22 0 -29 -10 -53 -69z" 
    fill="none" stroke="#000000" stroke-width="20"/>
    
    <!-- Fill path -->
    <path class="star-fill" d="M267 531 c-42 -103 -40 -101 -147 -114 -126 -16 -130 -30 -30 -112
    38 -33 70 -62 70 -67 0 -4 -9 -46 -20 -94 -16 -66 -18 -90 -9 -100 17 -20 22
    -19 110 36 l80 50 79 -50 c87 -55 92 -56 109 -36 9 10 7 34 -9 100 -11 48 -20
    90 -20 94 0 5 32 34 70 67 93 77 93 97 0 108 -137 16 -131 12 -170 104 -30 72
    -38 83 -60 83 -22 0 -29 -10 -53 -69z" 
    fill="#000000"/>
</g>
</svg>
